<mxfile host="Electron" agent="Mozilla/5.0 (Windows NT 10.0; Win64; x64) AppleWebKit/537.36 (KHTML, like Gecko) draw.io/24.7.17 Chrome/128.0.6613.36 Electron/32.0.1 Safari/537.36" version="24.7.17">
  <diagram name="Page-1" id="aG_Wa_xaYkt0s7DP9th7">
    <mxGraphModel dx="3296" dy="826" grid="1" gridSize="10" guides="1" tooltips="1" connect="1" arrows="1" fold="1" page="1" pageScale="1" pageWidth="850" pageHeight="1100" math="0" shadow="0">
      <root>
        <mxCell id="0" />
        <mxCell id="1" parent="0" />
        <mxCell id="jP7fiH-qiMuv-P7Q30xK-1" value="Notification" style="rounded=1;arcSize=10;whiteSpace=wrap;html=1;align=center;" parent="1" vertex="1">
          <mxGeometry x="-1600" y="275" width="100" height="40" as="geometry" />
        </mxCell>
        <mxCell id="jP7fiH-qiMuv-P7Q30xK-2" value="NotificationSubscriber" style="shape=ext;margin=3;double=1;whiteSpace=wrap;html=1;align=center;" parent="1" vertex="1">
          <mxGeometry x="-1302" y="275" width="165" height="40" as="geometry" />
        </mxCell>
        <mxCell id="jP7fiH-qiMuv-P7Q30xK-3" value="R" style="shape=rhombus;perimeter=rhombusPerimeter;whiteSpace=wrap;html=1;align=center;" parent="1" vertex="1">
          <mxGeometry x="-1434.5" y="265" width="70" height="60" as="geometry" />
        </mxCell>
        <mxCell id="jP7fiH-qiMuv-P7Q30xK-4" value="" style="endArrow=none;html=1;rounded=0;" parent="1" source="jP7fiH-qiMuv-P7Q30xK-2" target="jP7fiH-qiMuv-P7Q30xK-3" edge="1">
          <mxGeometry relative="1" as="geometry">
            <mxPoint x="-1537" y="375" as="sourcePoint" />
            <mxPoint x="-1377" y="375" as="targetPoint" />
          </mxGeometry>
        </mxCell>
        <mxCell id="jP7fiH-qiMuv-P7Q30xK-5" value="N" style="resizable=0;html=1;whiteSpace=wrap;align=right;verticalAlign=bottom;" parent="jP7fiH-qiMuv-P7Q30xK-4" connectable="0" vertex="1">
          <mxGeometry x="1" relative="1" as="geometry">
            <mxPoint x="9" as="offset" />
          </mxGeometry>
        </mxCell>
        <mxCell id="jP7fiH-qiMuv-P7Q30xK-6" value="" style="endArrow=none;html=1;rounded=0;" parent="1" source="jP7fiH-qiMuv-P7Q30xK-1" target="jP7fiH-qiMuv-P7Q30xK-3" edge="1">
          <mxGeometry relative="1" as="geometry">
            <mxPoint x="-1587" y="385" as="sourcePoint" />
            <mxPoint x="-1427" y="385" as="targetPoint" />
          </mxGeometry>
        </mxCell>
        <mxCell id="jP7fiH-qiMuv-P7Q30xK-7" value="1" style="resizable=0;html=1;whiteSpace=wrap;align=right;verticalAlign=bottom;" parent="jP7fiH-qiMuv-P7Q30xK-6" connectable="0" vertex="1">
          <mxGeometry x="1" relative="1" as="geometry" />
        </mxCell>
        <mxCell id="jP7fiH-qiMuv-P7Q30xK-8" value="" style="group" parent="1" vertex="1" connectable="0">
          <mxGeometry x="-1460" y="610" width="290" height="220" as="geometry" />
        </mxCell>
        <mxCell id="jP7fiH-qiMuv-P7Q30xK-9" value="&lt;font style=&quot;font-size: 12px;&quot;&gt;Course&lt;/font&gt;" style="rounded=1;arcSize=10;whiteSpace=wrap;html=1;align=center;" parent="jP7fiH-qiMuv-P7Q30xK-8" vertex="1">
          <mxGeometry width="85.29411764705884" height="38.260869565217384" as="geometry" />
        </mxCell>
        <mxCell id="jP7fiH-qiMuv-P7Q30xK-10" value="&lt;font style=&quot;font-size: 12px;&quot;&gt;Academy&lt;/font&gt;" style="rounded=1;arcSize=10;whiteSpace=wrap;html=1;align=center;" parent="jP7fiH-qiMuv-P7Q30xK-8" vertex="1">
          <mxGeometry x="104.91176470588238" width="85.29411764705884" height="38.260869565217384" as="geometry" />
        </mxCell>
        <mxCell id="jP7fiH-qiMuv-P7Q30xK-11" value="&lt;font style=&quot;font-size: 12px;&quot;&gt;Store&lt;/font&gt;" style="rounded=1;arcSize=10;whiteSpace=wrap;html=1;align=center;" parent="jP7fiH-qiMuv-P7Q30xK-8" vertex="1">
          <mxGeometry x="204.7058823529412" width="85.29411764705884" height="38.260869565217384" as="geometry" />
        </mxCell>
        <mxCell id="jP7fiH-qiMuv-P7Q30xK-12" value="" style="endArrow=none;html=1;rounded=0;" parent="jP7fiH-qiMuv-P7Q30xK-8" source="jP7fiH-qiMuv-P7Q30xK-9" target="jP7fiH-qiMuv-P7Q30xK-13" edge="1">
          <mxGeometry relative="1" as="geometry">
            <mxPoint x="61.41176470588237" y="38.260869565217384" as="sourcePoint" />
            <mxPoint x="127.94117647058825" y="105.21739130434781" as="targetPoint" />
          </mxGeometry>
        </mxCell>
        <mxCell id="jP7fiH-qiMuv-P7Q30xK-13" value="&lt;font style=&quot;font-size: 12px;&quot;&gt;U&lt;/font&gt;" style="ellipse;whiteSpace=wrap;html=1;aspect=fixed;" parent="jP7fiH-qiMuv-P7Q30xK-8" vertex="1">
          <mxGeometry x="130.5" y="106.65217391304347" width="31.582589692223642" height="31.582589692223642" as="geometry" />
        </mxCell>
        <mxCell id="jP7fiH-qiMuv-P7Q30xK-14" value="" style="endArrow=none;html=1;rounded=0;" parent="jP7fiH-qiMuv-P7Q30xK-8" source="jP7fiH-qiMuv-P7Q30xK-13" target="jP7fiH-qiMuv-P7Q30xK-10" edge="1">
          <mxGeometry width="50" height="50" relative="1" as="geometry">
            <mxPoint x="170.58823529411768" y="105.21739130434781" as="sourcePoint" />
            <mxPoint x="213.2352941176471" y="57.39130434782607" as="targetPoint" />
          </mxGeometry>
        </mxCell>
        <mxCell id="jP7fiH-qiMuv-P7Q30xK-15" value="" style="endArrow=none;html=1;rounded=0;" parent="jP7fiH-qiMuv-P7Q30xK-8" source="jP7fiH-qiMuv-P7Q30xK-13" target="jP7fiH-qiMuv-P7Q30xK-11" edge="1">
          <mxGeometry width="50" height="50" relative="1" as="geometry">
            <mxPoint x="142.44117647058826" y="105.21739130434781" as="sourcePoint" />
            <mxPoint x="152.6764705882353" y="47.826086956521735" as="targetPoint" />
          </mxGeometry>
        </mxCell>
        <mxCell id="jP7fiH-qiMuv-P7Q30xK-16" value="&lt;font style=&quot;font-size: 12px;&quot;&gt;Notification&lt;/font&gt;" style="rounded=1;arcSize=10;whiteSpace=wrap;html=1;align=center;" parent="jP7fiH-qiMuv-P7Q30xK-8" vertex="1">
          <mxGeometry x="104.91176470588238" y="181.7391304347826" width="85.29411764705884" height="38.260869565217384" as="geometry" />
        </mxCell>
        <mxCell id="jP7fiH-qiMuv-P7Q30xK-17" value="" style="endArrow=none;html=1;rounded=0;" parent="jP7fiH-qiMuv-P7Q30xK-8" source="jP7fiH-qiMuv-P7Q30xK-16" target="jP7fiH-qiMuv-P7Q30xK-13" edge="1">
          <mxGeometry relative="1" as="geometry">
            <mxPoint x="34.117647058823536" y="143.4782608695652" as="sourcePoint" />
            <mxPoint x="170.58823529411768" y="143.4782608695652" as="targetPoint" />
          </mxGeometry>
        </mxCell>
      </root>
    </mxGraphModel>
  </diagram>
</mxfile>
